<?xml version="1.0" encoding="UTF-8" standalone="no"?>
<!-- Created with Inkscape (http://www.inkscape.org/) -->

<svg
   width="1920"
   height="1080"
   viewBox="0 0 507.99999 285.75"
   version="1.1"
   id="svg5"
   sodipodi:docname="intro.svg"
   inkscape:export-filename="intro-plain.png"
   inkscape:export-xdpi="96"
   inkscape:export-ydpi="96"
   inkscape:version="1.2.1 (9c6d41e410, 2022-07-14)"
   xmlns:inkscape="http://www.inkscape.org/namespaces/inkscape"
   xmlns:sodipodi="http://sodipodi.sourceforge.net/DTD/sodipodi-0.dtd"
   xmlns:xlink="http://www.w3.org/1999/xlink"
   xmlns="http://www.w3.org/2000/svg"
   xmlns:svg="http://www.w3.org/2000/svg"
   xmlns:rdf="http://www.w3.org/1999/02/22-rdf-syntax-ns#"
   xmlns:cc="http://creativecommons.org/ns#"
   xmlns:dc="http://purl.org/dc/elements/1.1/">
  <title
     id="title364">Just Perfection Extension Intro</title>
  <sodipodi:namedview
     id="namedview52"
     pagecolor="#ffffff"
     bordercolor="#666666"
     borderopacity="1.0"
     inkscape:showpageshadow="2"
     inkscape:pageopacity="0.0"
     inkscape:pagecheckerboard="0"
     inkscape:deskcolor="#d1d1d1"
     showgrid="false"
     inkscape:zoom="0.5"
     inkscape:cx="745"
     inkscape:cy="505"
     inkscape:window-width="1920"
     inkscape:window-height="1048"
     inkscape:window-x="0"
     inkscape:window-y="0"
     inkscape:window-maximized="1"
     inkscape:current-layer="layer3" />
  <defs
     id="defs2">
    <linearGradient
       inkscape:collect="always"
       id="linearGradient2000">
      <stop
         style="stop-color:#ffcc00;stop-opacity:1"
         offset="0"
         id="stop1996" />
      <stop
         style="stop-color:#ff0066;stop-opacity:1"
         offset="1"
         id="stop1998" />
    </linearGradient>
    <linearGradient
       xlink:href="#linearGradient905"
       id="linearGradient921"
       x1="14.428227"
       y1="14.138401"
       x2="12.065819"
       y2="5.3217707"
       gradientUnits="userSpaceOnUse"
       gradientTransform="matrix(1.2097049,0,0,1.2097049,22.39744,183.0187)" />
    <linearGradient
       id="linearGradient905">
      <stop
         style="stop-color:#006ec1;stop-opacity:1"
         offset="0"
         id="stop901" />
      <stop
         style="stop-color:#00afff;stop-opacity:1"
         offset="1"
         id="stop903" />
    </linearGradient>
    <linearGradient
       xlink:href="#linearGradient895"
       id="linearGradient919"
       x1="22.695744"
       y1="-9.4822445"
       x2="30.226154"
       y2="3.5608044"
       gradientUnits="userSpaceOnUse"
       gradientTransform="matrix(1.2097049,0,0,1.2097049,110.90613,147.30011)" />
    <linearGradient
       id="linearGradient895">
      <stop
         style="stop-color:#00bcff;stop-opacity:1"
         offset="0"
         id="stop891" />
      <stop
         style="stop-color:#0078ff;stop-opacity:1"
         offset="1"
         id="stop893" />
    </linearGradient>
    <linearGradient
       xlink:href="#linearGradient849"
       id="linearGradient909"
       x1="6.5340023"
       y1="21.087091"
       x2="6.5340023"
       y2="4.1254106"
       gradientUnits="userSpaceOnUse"
       gradientTransform="matrix(1.2097049,0,0,1.2097049,22.39744,183.0187)" />
    <linearGradient
       id="linearGradient849">
      <stop
         id="stop845"
         offset="0"
         style="stop-color:#0078d2;stop-opacity:1" />
      <stop
         id="stop847"
         offset="1"
         style="stop-color:#00ddff;stop-opacity:1" />
    </linearGradient>
    <linearGradient
       xlink:href="#linearGradient895"
       id="linearGradient897"
       x1="23.271162"
       y1="12.053633"
       x2="23.271162"
       y2="38.225796"
       gradientUnits="userSpaceOnUse"
       gradientTransform="matrix(1.2097049,0,0,1.2097049,22.39744,183.0187)" />
    <linearGradient
       xlink:href="#linearGradient915"
       id="linearGradient917"
       x1="19.010775"
       y1="-3.2001081"
       x2="24.389931"
       y2="-1.3244069"
       gradientUnits="userSpaceOnUse"
       gradientTransform="matrix(1.2097049,0,0,1.2097049,180.18824,39.11124)" />
    <linearGradient
       id="linearGradient915">
      <stop
         style="stop-color:#0061aa;stop-opacity:1"
         offset="0"
         id="stop911" />
      <stop
         style="stop-color:#1600b6;stop-opacity:0"
         offset="1"
         id="stop913" />
    </linearGradient>
    <linearGradient
       inkscape:collect="always"
       xlink:href="#linearGradient2000"
       id="linearGradient2002"
       x1="130.07626"
       y1="262.99734"
       x2="485.05795"
       y2="58.048573"
       gradientUnits="userSpaceOnUse" />
    <linearGradient
       inkscape:collect="always"
       xlink:href="#linearGradient905"
       id="linearGradient921-3"
       x1="14.428227"
       y1="14.138401"
       x2="12.065819"
       y2="5.3217707"
       gradientUnits="userSpaceOnUse" />
    <linearGradient
       inkscape:collect="always"
       xlink:href="#linearGradient895"
       id="linearGradient919-5"
       x1="22.695744"
       y1="-9.4822445"
       x2="30.226154"
       y2="3.5608044"
       gradientUnits="userSpaceOnUse" />
    <linearGradient
       inkscape:collect="always"
       xlink:href="#linearGradient849"
       id="linearGradient909-6"
       x1="6.5340023"
       y1="21.087091"
       x2="6.5340023"
       y2="4.1254106"
       gradientUnits="userSpaceOnUse" />
    <linearGradient
       inkscape:collect="always"
       xlink:href="#linearGradient895"
       id="linearGradient897-1"
       x1="23.271162"
       y1="12.053633"
       x2="23.271162"
       y2="38.225796"
       gradientUnits="userSpaceOnUse" />
    <linearGradient
       inkscape:collect="always"
       xlink:href="#linearGradient915"
       id="linearGradient917-2"
       x1="19.010775"
       y1="-3.2001081"
       x2="24.389931"
       y2="-1.3244069"
       gradientUnits="userSpaceOnUse" />
  </defs>
  <g
     inkscape:groupmode="layer"
     id="layer3"
     inkscape:label="Background"
     style="fill:url(#linearGradient2002);fill-opacity:1">
    <rect
       style="fill:#007bd7;fill-opacity:1;stroke:#1a1a1a;stroke-width:0.573155;stroke-dasharray:none;stroke-opacity:1;stop-color:#000000"
       id="rect1203"
       width="543.47418"
       height="313.35019"
       x="-17.737093"
       y="-13.800096" />
  </g>
  <g
     inkscape:groupmode="layer"
     id="layer2"
     inkscape:label="Lines"
     style="display:inline;stroke:#ffffff" />
  <path
     d="M 474.07726,-133.94837 C 450.77171,-137.49749 396.12463,10.883001 324.7017,28.874841 255.30029,46.357477 193.22702,-35.549503 121.92184,-41.694947 27.819396,-49.805202 -91.527747,2.7243513 -63.107573,100.90983 -9.3324151,255.12867 181.86467,328.68035 313.49876,282.78025 445.13361,236.87987 562.48103,83.453725 495.36788,-93.829438 490.00789,-107.9883 483.47234,-131.06908 474.07715,-133.94837 Z"
     style="display:inline;fill:none;fill-opacity:1;stroke:#ffffff;stroke-width:0.52916666;stroke-dasharray:none"
     id="path2740-6-7"
     sodipodi:nodetypes="cascascc" />
  <path
     d="M 438.48518,-34.766719 C 396.13356,-144.63157 435.88879,102.75442 318.36869,57.653255 173.53153,2.0684078 36.380884,15.010248 40.587827,118.59095 44.774897,221.68265 223.16845,289.56792 319.54364,252.72708 416.40993,215.69849 485.68214,93.410188 438.4948,-34.741774 c -0.002,-0.0073 -4.3e-4,-0.0205 -0.008,-0.02543 -3.8e-4,-1.72e-4 -9.9e-4,4.21e-4 -9.9e-4,4.21e-4 z"
     style="display:inline;fill:none;fill-opacity:1;stroke:#ffffff;stroke-width:0.52916666;stroke-dasharray:none"
     id="path2747-2-5"
     sodipodi:nodetypes="sssasass" />
  <g
     inkscape:groupmode="layer"
     id="layer4"
     inkscape:label="Logo"
     style="display:inline">
    <g
       id="g1281"
       transform="translate(-0.11715281,18.627534)">
      <path
         d="m 358.50961,23.535925 c -9.73198,-1.482051 -32.55165,60.479048 -62.37661,67.992127 -28.98081,7.300433 -54.90152,-26.90248 -84.67731,-29.468715 -39.29554,-3.386696 -89.13281,18.548717 -77.26504,59.549263 22.45556,64.39908 105.6144,94.7299 161.12398,74.31321 53.65785,-19.73562 100.11085,-81.60258 72.08558,-155.632925 -2.23825,-5.912484 -4.96737,-15.550618 -8.89064,-16.75296 z"
         style="fill:none;fill-opacity:1;stroke:#ffffff;stroke-width:0.79375;stroke-dasharray:none"
         id="path2740-6"
         sodipodi:nodetypes="cascascc" />
      <path
         d="M 365.85704,34.501773 C 344.85618,-25.701055 362.04703,108.88708 299.23018,82.421911 221.81181,49.80498 147.35533,54.411221 147.82099,110.54587 c 0.46346,55.86963 94.13995,94.2905 146.34412,76.72729 53.3125,-17.93609 94.99502,-82.57276 71.6967,-152.75771 -10e-4,-0.0042 1.3e-4,-0.01111 -0.004,-0.01389 -2e-4,-9.7e-5 -6.1e-4,2.09e-4 -6.1e-4,2.09e-4 z"
         style="fill:none;fill-opacity:1;stroke:#ffffff;stroke-width:0.79375;stroke-dasharray:none"
         id="path2747-2"
         sodipodi:nodetypes="sssasass" />
      <circle
         transform="rotate(70.776438)"
         r="13.793529"
         cy="-142.51395"
         cx="150.66051"
         id="path2745-9"
         style="fill:none;fill-opacity:1;stroke:#ffffff;stroke-width:0.79375;stroke-dasharray:none" />
      <circle
         transform="rotate(70.776438)"
         r="8.1711063"
         cy="-139.59805"
         cx="148.56323"
         id="circle2815-1"
         style="fill:none;stroke:#ffffff;stroke-width:0.79375;stroke-dasharray:none" />
      <circle
         transform="rotate(70.776438)"
         r="5.5885572"
         cy="-138.96277"
         cx="148.47057"
         id="circle2817-2"
         style="fill:none;stroke:#ffffff;stroke-width:0.79375;stroke-dasharray:none" />
      <path
         d="m 165.37221,132.04792 c -13.56247,1.07588 -26.44469,-1.86657 -28.8315,-4.2353 3.66971,7.76739 7.36956,15.52164 12.83096,22.50826 4.81955,6.16551 18.40505,6.05009 26.85993,2.94516 7.00543,-2.57263 17.6863,-9.16395 15.3865,-16.26362 -2.74364,-8.46985 -17.37063,-5.65856 -26.24589,-4.9545 z"
         style="color:#000000;font-style:normal;font-variant:normal;font-weight:normal;font-stretch:normal;font-size:medium;line-height:normal;font-family:sans-serif;font-variant-ligatures:normal;font-variant-position:normal;font-variant-caps:normal;font-variant-numeric:normal;font-variant-alternates:normal;font-feature-settings:normal;text-indent:0;text-align:start;text-decoration:none;text-decoration-line:none;text-decoration-style:solid;text-decoration-color:#000000;letter-spacing:normal;word-spacing:normal;text-transform:none;writing-mode:lr-tb;direction:ltr;text-orientation:mixed;dominant-baseline:auto;baseline-shift:baseline;text-anchor:start;white-space:normal;shape-padding:0;clip-rule:nonzero;display:inline;overflow:visible;visibility:visible;isolation:auto;mix-blend-mode:normal;color-interpolation:sRGB;color-interpolation-filters:linearRGB;solid-color:#000000;solid-opacity:1;fill:none;fill-opacity:0.285336;fill-rule:nonzero;stroke:#ffffff;stroke-width:0.79375;stroke-linecap:butt;stroke-linejoin:miter;stroke-miterlimit:4;stroke-dasharray:none;stroke-dashoffset:0;stroke-opacity:1;color-rendering:auto;image-rendering:auto;shape-rendering:auto;text-rendering:auto;enable-background:accumulate"
         id="path2834-7"
         sodipodi:nodetypes="scsaas" />
    </g>
  </g>
  <g
     inkscape:groupmode="layer"
     id="layer1"
     inkscape:label="Texts"
     style="fill:#ffffff">
    <g
       aria-label="A Tweak Tool For GNOME Shell"
       id="text477"
       style="font-weight:bold;font-size:5.65169px;line-height:1.25;font-family:Montserrat;-inkscape-font-specification:'Montserrat Bold';text-align:center;text-anchor:middle;fill:#f1f5ff;stroke-width:0.141294">
      <path
         d="m 213.93517,249.73424 h -2.20416 l -0.47474,1.05687 h -0.43518 l 1.80854,-3.95619 h 0.41257 l 1.80854,3.95619 h -0.44083 z m -0.15259,-0.3391 -0.94949,-2.12504 -0.94948,2.12504 z"
         style="font-weight:normal;-inkscape-font-specification:Montserrat"
         id="path439" />
      <path
         d="m 217.7557,247.19663 h -1.39031 v -0.36171 h 3.19885 v 0.36171 h -1.39031 v 3.59448 h -0.41823 z"
         style="font-weight:normal;-inkscape-font-specification:Montserrat"
         id="path441" />
      <path
         d="m 224.31731,247.81832 -1.12469,2.97279 h -0.37866 l -0.93818,-2.43588 -0.93818,2.43588 h -0.37866 l -1.11904,-2.97279 h 0.38432 l 0.93253,2.5263 0.95513,-2.5263 h 0.34475 l 0.94949,2.5263 0.94383,-2.5263 z"
         style="font-weight:normal;-inkscape-font-specification:Montserrat"
         id="path443" />
      <path
         d="M 227.42574,249.42905 H 224.939 q 0.0339,0.46344 0.35605,0.75167 0.32215,0.28259 0.81385,0.28259 0.27693,0 0.50865,-0.0961 0.23172,-0.10173 0.40127,-0.29389 l 0.22607,0.25998 q -0.19781,0.23737 -0.49735,0.36171 -0.29389,0.12434 -0.64995,0.12434 -0.45778,0 -0.81384,-0.19216 -0.3504,-0.19781 -0.54821,-0.54256 -0.19781,-0.34476 -0.19781,-0.77994 0,-0.43518 0.1865,-0.77993 0.19216,-0.34475 0.51996,-0.53691 0.33345,-0.19216 0.74602,-0.19216 0.41257,0 0.74037,0.19216 0.3278,0.19216 0.51431,0.53691 0.1865,0.3391 0.1865,0.77993 z m -1.43553,-1.28859 q -0.42953,0 -0.72341,0.27694 -0.28824,0.27128 -0.3278,0.71211 h 2.10808 q -0.0396,-0.44083 -0.33345,-0.71211 -0.28824,-0.27694 -0.72342,-0.27694 z"
         style="font-weight:normal;-inkscape-font-specification:Montserrat"
         id="path445" />
      <path
         d="m 229.20603,247.79571 q 0.58212,0 0.89296,0.29389 0.31085,0.28824 0.31085,0.85906 v 1.84245 h -0.38432 v -0.46344 q -0.13564,0.23172 -0.40127,0.36171 -0.25998,0.12999 -0.62168,0.12999 -0.49735,0 -0.79124,-0.23738 -0.29389,-0.23737 -0.29389,-0.62733 0,-0.37867 0.27128,-0.61039 0.27694,-0.23171 0.87601,-0.23171 h 0.94384 v -0.18086 q 0,-0.38431 -0.21477,-0.58212 -0.21476,-0.20346 -0.62734,-0.20346 -0.28258,0 -0.54256,0.0961 -0.25998,0.0904 -0.44648,0.25433 l -0.18085,-0.29954 q 0.22606,-0.19216 0.54256,-0.29389 0.31649,-0.10738 0.6669,-0.10738 z m -0.1413,2.70716 q 0.33911,0 0.58213,-0.15259 0.24302,-0.15825 0.36171,-0.45214 v -0.48605 h -0.93253 q -0.76298,0 -0.76298,0.53126 0,0.25998 0.19781,0.41258 0.19781,0.14694 0.55386,0.14694 z"
         style="font-weight:normal;-inkscape-font-specification:Montserrat"
         id="path447" />
      <path
         d="m 232.60269,249.29906 -0.7008,0.64429 v 0.84776 h -0.40127 v -4.19356 h 0.40127 v 2.8428 l 1.77463,-1.62203 h 0.49734 l -1.27163,1.21511 1.39032,1.75768 h -0.4917 z"
         style="font-weight:normal;-inkscape-font-specification:Montserrat"
         id="path449" />
      <path
         d="m 237.23142,247.19663 h -1.39031 v -0.36171 h 3.19885 v 0.36171 h -1.39031 v 3.59448 h -0.41823 z"
         style="font-weight:normal;-inkscape-font-specification:Montserrat"
         id="path451" />
      <path
         d="m 240.52635,250.81937 q -0.42952,0 -0.77428,-0.19216 -0.34475,-0.19781 -0.54256,-0.54256 -0.19781,-0.34476 -0.19781,-0.77994 0,-0.43518 0.19781,-0.77993 0.19781,-0.34475 0.54256,-0.53691 0.34476,-0.19216 0.77428,-0.19216 0.42953,0 0.77429,0.19216 0.34475,0.19216 0.53691,0.53691 0.1978,0.34475 0.1978,0.77993 0,0.43518 -0.1978,0.77994 -0.19216,0.34475 -0.53691,0.54256 -0.34476,0.19216 -0.77429,0.19216 z m 0,-0.35606 q 0.3165,0 0.56517,-0.14129 0.25433,-0.14695 0.39562,-0.41258 0.14129,-0.26563 0.14129,-0.60473 0,-0.3391 -0.14129,-0.60473 -0.14129,-0.26563 -0.39562,-0.40692 -0.24867,-0.14694 -0.56517,-0.14694 -0.31649,0 -0.57082,0.14694 -0.24867,0.14129 -0.39562,0.40692 -0.14129,0.26563 -0.14129,0.60473 0,0.3391 0.14129,0.60473 0.14695,0.26563 0.39562,0.41258 0.25433,0.14129 0.57082,0.14129 z"
         style="font-weight:normal;-inkscape-font-specification:Montserrat"
         id="path453" />
      <path
         d="m 244.06997,250.81937 q -0.42953,0 -0.77428,-0.19216 -0.34476,-0.19781 -0.54257,-0.54256 -0.19781,-0.34476 -0.19781,-0.77994 0,-0.43518 0.19781,-0.77993 0.19781,-0.34475 0.54257,-0.53691 0.34475,-0.19216 0.77428,-0.19216 0.42953,0 0.77428,0.19216 0.34475,0.19216 0.53691,0.53691 0.19781,0.34475 0.19781,0.77993 0,0.43518 -0.19781,0.77994 -0.19216,0.34475 -0.53691,0.54256 -0.34475,0.19216 -0.77428,0.19216 z m 0,-0.35606 q 0.31649,0 0.56517,-0.14129 0.25432,-0.14695 0.39561,-0.41258 0.1413,-0.26563 0.1413,-0.60473 0,-0.3391 -0.1413,-0.60473 -0.14129,-0.26563 -0.39561,-0.40692 -0.24868,-0.14694 -0.56517,-0.14694 -0.3165,0 -0.57082,0.14694 -0.24868,0.14129 -0.39562,0.40692 -0.14129,0.26563 -0.14129,0.60473 0,0.3391 0.14129,0.60473 0.14694,0.26563 0.39562,0.41258 0.25432,0.14129 0.57082,0.14129 z"
         style="font-weight:normal;-inkscape-font-specification:Montserrat"
         id="path455" />
      <path
         d="m 246.39847,246.59755 h 0.40127 v 4.19356 h -0.40127 z"
         style="font-weight:normal;-inkscape-font-specification:Montserrat"
         id="path457" />
      <path
         d="m 249.90251,247.19663 v 1.55422 h 2.04591 v 0.36171 h -2.04591 v 1.67855 h -0.41823 v -3.95619 h 2.71281 v 0.36171 z"
         style="font-weight:normal;-inkscape-font-specification:Montserrat"
         id="path459" />
      <path
         d="m 254.09041,250.81937 q -0.42953,0 -0.77429,-0.19216 -0.34475,-0.19781 -0.54256,-0.54256 -0.19781,-0.34476 -0.19781,-0.77994 0,-0.43518 0.19781,-0.77993 0.19781,-0.34475 0.54256,-0.53691 0.34476,-0.19216 0.77429,-0.19216 0.42952,0 0.77428,0.19216 0.34475,0.19216 0.53691,0.53691 0.19781,0.34475 0.19781,0.77993 0,0.43518 -0.19781,0.77994 -0.19216,0.34475 -0.53691,0.54256 -0.34476,0.19216 -0.77428,0.19216 z m 0,-0.35606 q 0.31649,0 0.56517,-0.14129 0.25432,-0.14695 0.39561,-0.41258 0.1413,-0.26563 0.1413,-0.60473 0,-0.3391 -0.1413,-0.60473 -0.14129,-0.26563 -0.39561,-0.40692 -0.24868,-0.14694 -0.56517,-0.14694 -0.3165,0 -0.57082,0.14694 -0.24868,0.14129 -0.39562,0.40692 -0.1413,0.26563 -0.1413,0.60473 0,0.3391 0.1413,0.60473 0.14694,0.26563 0.39562,0.41258 0.25432,0.14129 0.57082,0.14129 z"
         style="font-weight:normal;-inkscape-font-specification:Montserrat"
         id="path461" />
      <path
         d="m 256.80322,248.40044 q 0.14129,-0.29954 0.41823,-0.45213 0.28258,-0.1526 0.69515,-0.1526 v 0.38997 l -0.0961,-0.006 q -0.46909,0 -0.73472,0.28823 -0.26563,0.28824 -0.26563,0.80819 v 1.51466 h -0.40127 v -2.97279 h 0.38431 z"
         style="font-weight:normal;-inkscape-font-specification:Montserrat"
         id="path463" />
      <path
         d="m 263.03703,248.81302 h 0.40127 v 1.509 q -0.27694,0.24302 -0.6556,0.37301 -0.37866,0.12999 -0.79689,0.12999 -0.59342,0 -1.06817,-0.25998 -0.47474,-0.25998 -0.74602,-0.71777 -0.27128,-0.46343 -0.27128,-1.03425 0,-0.57083 0.27128,-1.02861 0.27128,-0.46344 0.74602,-0.72342 0.47475,-0.25998 1.07382,-0.25998 0.45214,0 0.8308,0.14695 0.37867,0.14129 0.63864,0.42387 l -0.25997,0.26563 q -0.46909,-0.46343 -1.19251,-0.46343 -0.48039,0 -0.87036,0.21476 -0.38432,0.20911 -0.60473,0.58778 -0.22042,0.37301 -0.22042,0.83645 0,0.46343 0.22042,0.83645 0.22041,0.37301 0.60473,0.58777 0.38431,0.21477 0.86471,0.21477 0.61038,0 1.03426,-0.3052 z"
         style="font-weight:normal;-inkscape-font-specification:Montserrat"
         id="path465" />
      <path
         d="m 267.92574,246.83492 v 3.95619 h -0.34475 l -2.54326,-3.21016 v 3.21016 h -0.41823 v -3.95619 h 0.34476 l 2.54891,3.21016 v -3.21016 z"
         style="font-weight:normal;-inkscape-font-specification:Montserrat"
         id="path467" />
      <path
         d="m 270.94374,250.82502 q -0.58777,0 -1.06817,-0.25998 -0.47474,-0.26563 -0.74602,-0.72342 -0.26563,-0.45778 -0.26563,-1.0286 0,-0.57083 0.26563,-1.02861 0.27128,-0.45779 0.74602,-0.71777 0.4804,-0.26563 1.06817,-0.26563 0.58778,0 1.05687,0.25998 0.47474,0.25998 0.74602,0.72342 0.27128,0.45778 0.27128,1.02861 0,0.57082 -0.27128,1.03425 -0.27128,0.45779 -0.74602,0.71777 -0.46909,0.25998 -1.05687,0.25998 z m 0,-0.37301 q 0.46909,0 0.84776,-0.20912 0.37866,-0.21476 0.59342,-0.58777 0.21477,-0.37867 0.21477,-0.8421 0,-0.46344 -0.21477,-0.83645 -0.21476,-0.37867 -0.59342,-0.58778 -0.37867,-0.21476 -0.84776,-0.21476 -0.46909,0 -0.8534,0.21476 -0.37867,0.20911 -0.59908,0.58778 -0.21477,0.37301 -0.21477,0.83645 0,0.46343 0.21477,0.8421 0.22041,0.37301 0.59908,0.58777 0.38431,0.20912 0.8534,0.20912 z"
         style="font-weight:normal;-inkscape-font-specification:Montserrat"
         id="path469" />
      <path
         d="m 278.06488,246.83492 v 3.95619 h -0.40127 v -3.16495 l -1.55422,2.66195 h -0.19781 l -1.55421,-2.64499 v 3.14799 h -0.40127 v -3.95619 h 0.34475 l 1.71811,2.93323 1.70116,-2.93323 z"
         style="font-weight:normal;-inkscape-font-specification:Montserrat"
         id="path471" />
      <path
         d="m 282.15105,250.4294 v 0.36171 h -2.79759 v -3.95619 h 2.71281 v 0.36171 h -2.29458 v 1.40727 h 2.04591 v 0.35606 h -2.04591 v 1.46944 z"
         style="font-weight:normal;-inkscape-font-specification:Montserrat"
         id="path473" />
      <path
         d="m 285.70596,250.82502 q -0.44083,0 -0.84776,-0.14129 -0.40127,-0.1413 -0.62168,-0.37302 l 0.1639,-0.32214 q 0.21476,0.21476 0.57082,0.3504 0.35605,0.12999 0.73472,0.12999 0.53126,0 0.79689,-0.19216 0.26563,-0.19781 0.26563,-0.50865 0,-0.23737 -0.14695,-0.37866 -0.14129,-0.14129 -0.3504,-0.21477 -0.20912,-0.0791 -0.58213,-0.16955 -0.44648,-0.11303 -0.71211,-0.21476 -0.26563,-0.10738 -0.45779,-0.32215 -0.1865,-0.21476 -0.1865,-0.58212 0,-0.29954 0.15824,-0.54256 0.15825,-0.24868 0.48605,-0.39562 0.3278,-0.14695 0.81384,-0.14695 0.3391,0 0.66125,0.0961 0.3278,0.0904 0.56517,0.25433 l -0.14129,0.33345 q -0.24868,-0.1639 -0.53126,-0.24302 -0.28259,-0.0848 -0.55387,-0.0848 -0.51995,0 -0.78558,0.20346 -0.25998,0.19781 -0.25998,0.51431 0,0.23737 0.14129,0.38431 0.14695,0.14129 0.36171,0.22042 0.22042,0.0735 0.58778,0.16389 0.43518,0.10739 0.70081,0.21477 0.27128,0.10173 0.45778,0.31649 0.18651,0.20912 0.18651,0.57082 0,0.29954 -0.1639,0.54822 -0.15825,0.24302 -0.4917,0.38997 -0.33345,0.14129 -0.81949,0.14129 z"
         style="font-weight:normal;-inkscape-font-specification:Montserrat"
         id="path475" />
      <path
         d="m 289.52085,247.79571 q 0.55952,0 0.88732,0.3278 0.33345,0.32215 0.33345,0.94383 v 1.72377 h -0.40127 v -1.68421 q 0,-0.46344 -0.23172,-0.70646 -0.23172,-0.24302 -0.66125,-0.24302 -0.48039,0 -0.76298,0.28824 -0.27693,0.28258 -0.27693,0.78558 v 1.55987 h -0.40127 v -4.19356 h 0.40127 v 1.74072 q 0.1639,-0.25997 0.45213,-0.40127 0.28824,-0.14129 0.66125,-0.14129 z"
         style="font-weight:normal;-inkscape-font-specification:Montserrat"
         id="path477" />
      <path
         d="m 294.43217,249.42905 h -2.48674 q 0.0339,0.46344 0.35606,0.75167 0.32214,0.28259 0.81384,0.28259 0.27693,0 0.50865,-0.0961 0.23172,-0.10173 0.40127,-0.29389 l 0.22607,0.25998 q -0.19781,0.23737 -0.49735,0.36171 -0.29389,0.12434 -0.64994,0.12434 -0.45779,0 -0.81385,-0.19216 -0.3504,-0.19781 -0.54821,-0.54256 -0.19781,-0.34476 -0.19781,-0.77994 0,-0.43518 0.18651,-0.77993 0.19215,-0.34475 0.51995,-0.53691 0.33345,-0.19216 0.74602,-0.19216 0.41258,0 0.74038,0.19216 0.32779,0.19216 0.5143,0.53691 0.18651,0.3391 0.18651,0.77993 z m -1.43553,-1.28859 q -0.42952,0 -0.72341,0.27694 -0.28824,0.27128 -0.3278,0.71211 h 2.10808 q -0.0396,-0.44083 -0.33345,-0.71211 -0.28824,-0.27694 -0.72342,-0.27694 z"
         style="font-weight:normal;-inkscape-font-specification:Montserrat"
         id="path479" />
      <path
         d="m 295.25732,246.59755 h 0.40127 v 4.19356 h -0.40127 z"
         style="font-weight:normal;-inkscape-font-specification:Montserrat"
         id="path481" />
      <path
         d="m 296.77762,246.59755 h 0.40127 v 4.19356 h -0.40127 z"
         style="font-weight:normal;-inkscape-font-specification:Montserrat"
         id="path483" />
    </g>
    <g
       aria-label="JustPerfection"
       id="text423"
       style="font-weight:bold;font-size:9.00219px;line-height:1.25;font-family:Montserrat;-inkscape-font-specification:'Montserrat Bold';fill:#f1f5ff;stroke-width:0.225056">
      <path
         d="m 222.39783,237.12855 q -0.60314,0 -1.11627,-0.23406 -0.50412,-0.24306 -0.8282,-0.67516 l 0.66616,-0.8012 q 0.52213,0.72018 1.25131,0.72018 0.98124,0 0.98124,-1.16128 v -3.2588 h -2.24155 V 230.737 h 3.41183 v 4.17701 q 0,1.10727 -0.54013,1.66541 -0.54013,0.54913 -1.58439,0.54913 z"
         style="font-weight:600;-inkscape-font-specification:'Montserrat Semi-Bold'"
         id="path410" />
      <path
         d="m 230.70686,232.23136 v 4.80717 h -1.07126 v -0.61215 q -0.27007,0.32408 -0.67517,0.50412 -0.4051,0.17104 -0.87321,0.17104 -0.96323,0 -1.52137,-0.53113 -0.54913,-0.54013 -0.54913,-1.59338 v -2.74567 h 1.12527 v 2.59263 q 0,0.64816 0.28807,0.97224 0.29707,0.31507 0.8372,0.31507 0.60315,0 0.95424,-0.36909 0.36008,-0.37809 0.36008,-1.08026 v -2.43059 z"
         style="font-weight:600;-inkscape-font-specification:'Montserrat Semi-Bold'"
         id="path412" />
      <path
         d="m 233.66858,237.10154 q -0.58515,0 -1.14328,-0.15303 -0.55814,-0.15304 -0.89122,-0.3871 l 0.43211,-0.85521 q 0.32408,0.21606 0.77419,0.35109 0.45911,0.12603 0.90021,0.12603 1.00825,0 1.00825,-0.53113 0,-0.25206 -0.26106,-0.35108 -0.25207,-0.099 -0.8192,-0.18905 -0.59415,-0.09 -0.97224,-0.20705 -0.36909,-0.11703 -0.64816,-0.4051 -0.27006,-0.29707 -0.27006,-0.8192 0,-0.68416 0.56713,-1.08926 0.57615,-0.4141 1.54838,-0.4141 0.49512,0 0.99024,0.11702 0.49512,0.10803 0.8102,0.29708 l -0.43211,0.8552 q -0.61214,-0.36008 -1.37733,-0.36008 -0.49512,0 -0.75618,0.15303 -0.25207,0.14404 -0.25207,0.3871 0,0.27006 0.27007,0.38709 0.27907,0.10803 0.85521,0.20705 0.57614,0.09 0.94523,0.20705 0.36909,0.11703 0.63015,0.3961 0.27007,0.27907 0.27007,0.79219 0,0.67517 -0.58515,1.08027 -0.58514,0.40509 -1.59338,0.40509 z"
         style="font-weight:600;-inkscape-font-specification:'Montserrat Semi-Bold'"
         id="path414" />
      <path
         d="m 239.70904,236.77746 q -0.19805,0.16204 -0.48612,0.24306 -0.27907,0.081 -0.59414,0.081 -0.7922,0 -1.2243,-0.4141 -0.43211,-0.4141 -0.43211,-1.20629 v -2.31356 h -0.79219 v -0.90022 h 0.79219 v -1.09827 h 1.12528 v 1.09827 h 1.28731 v 0.90022 h -1.28731 v 2.28655 q 0,0.35109 0.17104,0.54013 0.17104,0.18005 0.49512,0.18005 0.37809,0 0.63015,-0.19805 z"
         style="font-weight:600;-inkscape-font-specification:'Montserrat Semi-Bold'"
         id="path416" />
      <path
         d="m 243.33692,230.737 q 0.8192,0 1.42235,0.27006 0.61215,0.27007 0.93622,0.77419 0.32408,0.50412 0.32408,1.19729 0,0.68417 -0.32408,1.19729 -0.32407,0.50412 -0.93622,0.77419 -0.60315,0.27007 -1.42235,0.27007 h -1.42234 v 1.81844 h -1.17029 V 230.737 Z m -0.054,3.49285 q 0.76518,0 1.16128,-0.32408 0.3961,-0.32408 0.3961,-0.92723 0,-0.60315 -0.3961,-0.92722 -0.3961,-0.32408 -1.16128,-0.32408 h -1.36833 v 2.50261 z"
         style="font-weight:600;-inkscape-font-specification:'Montserrat Semi-Bold'"
         id="path418" />
      <path
         d="m 251.58293,234.66195 q 0,0.11703 -0.018,0.33308 h -3.77192 q 0.099,0.53113 0.51312,0.84621 0.42311,0.30607 1.04426,0.30607 0.79219,0 1.30532,-0.52213 l 0.60314,0.69317 q -0.32408,0.3871 -0.8192,0.58515 -0.49512,0.19804 -1.11627,0.19804 -0.79219,0 -1.39534,-0.31507 -0.60314,-0.31508 -0.93622,-0.87322 -0.32408,-0.56713 -0.32408,-1.27831 0,-0.70217 0.31507,-1.2603 0.32408,-0.56714 0.89122,-0.88222 0.56714,-0.31507 1.27831,-0.31507 0.70217,0 1.2513,0.31507 0.55814,0.30608 0.86422,0.87322 0.31507,0.55813 0.31507,1.29631 z m -2.43059,-1.58438 q -0.54013,0 -0.91822,0.32407 -0.36909,0.31508 -0.45011,0.84621 h 2.72766 q -0.072,-0.52213 -0.44111,-0.84621 -0.36909,-0.32407 -0.91822,-0.32407 z"
         style="font-weight:600;-inkscape-font-specification:'Montserrat Semi-Bold'"
         id="path420" />
      <path
         d="m 253.73445,232.93353 q 0.48612,-0.75618 1.71042,-0.75618 v 1.07126 q -0.14403,-0.027 -0.26106,-0.027 -0.65716,0 -1.02625,0.38709 -0.36909,0.3781 -0.36909,1.09827 v 2.33157 h -1.12528 v -4.80717 h 1.07126 z"
         style="font-weight:600;-inkscape-font-specification:'Montserrat Semi-Bold'"
         id="path422" />
      <path
         d="m 258.39759,231.20511 q -0.71118,0 -0.71118,0.77419 v 0.28807 h 1.32333 v 0.90022 h -1.28732 v 3.87094 h -1.12527 v -3.87094 h -0.79219 v -0.90022 h 0.79219 v -0.30608 q 0,-0.77418 0.45011,-1.21529 0.45011,-0.45011 1.26931,-0.45011 0.64816,0 1.01725,0.26106 l -0.31508,0.84621 q -0.28807,-0.19805 -0.62115,-0.19805 z"
         style="font-weight:600;-inkscape-font-specification:'Montserrat Semi-Bold'"
         id="path424" />
      <path
         d="m 264.21301,234.66195 q 0,0.11703 -0.018,0.33308 h -3.77192 q 0.099,0.53113 0.51313,0.84621 0.4231,0.30607 1.04425,0.30607 0.7922,0 1.30532,-0.52213 l 0.60315,0.69317 q -0.32408,0.3871 -0.8192,0.58515 -0.49512,0.19804 -1.11627,0.19804 -0.7922,0 -1.39534,-0.31507 -0.60315,-0.31508 -0.93623,-0.87322 -0.32408,-0.56713 -0.32408,-1.27831 0,-0.70217 0.31508,-1.2603 0.32408,-0.56714 0.89121,-0.88222 0.56714,-0.31507 1.27831,-0.31507 0.70217,0 1.25131,0.31507 0.55813,0.30608 0.86421,0.87322 0.31508,0.55813 0.31508,1.29631 z m -2.4306,-1.58438 q -0.54013,0 -0.91822,0.32407 -0.36909,0.31508 -0.45011,0.84621 h 2.72766 q -0.072,-0.52213 -0.4411,-0.84621 -0.36909,-0.32407 -0.91823,-0.32407 z"
         style="font-weight:600;-inkscape-font-specification:'Montserrat Semi-Bold'"
         id="path426" />
      <path
         d="m 267.4988,237.10154 q -0.74718,0 -1.34133,-0.31507 -0.59414,-0.31508 -0.92722,-0.87322 -0.33308,-0.56713 -0.33308,-1.27831 0,-0.71117 0.33308,-1.2693 0.33308,-0.55814 0.91822,-0.87322 0.59415,-0.31507 1.35033,-0.31507 0.71117,0 1.2423,0.28807 0.54013,0.28807 0.8102,0.8282 l -0.86421,0.50412 q -0.20705,-0.33308 -0.52213,-0.49512 -0.30607,-0.17104 -0.67516,-0.17104 -0.63016,0 -1.04426,0.4141 -0.4141,0.4051 -0.4141,1.08926 0,0.68417 0.4051,1.09827 0.4141,0.4051 1.05326,0.4051 0.36909,0 0.67516,-0.16204 0.31508,-0.17104 0.52213,-0.50412 l 0.86421,0.50412 q -0.27907,0.54013 -0.8192,0.8372 -0.53113,0.28807 -1.2333,0.28807 z"
         style="font-weight:600;-inkscape-font-specification:'Montserrat Semi-Bold'"
         id="path428" />
      <path
         d="m 273.47625,236.77746 q -0.19805,0.16204 -0.48612,0.24306 -0.27907,0.081 -0.59414,0.081 -0.7922,0 -1.2243,-0.4141 -0.43211,-0.4141 -0.43211,-1.20629 v -2.31356 h -0.79219 v -0.90022 h 0.79219 v -1.09827 h 1.12528 v 1.09827 h 1.28731 v 0.90022 h -1.28731 v 2.28655 q 0,0.35109 0.17104,0.54013 0.17104,0.18005 0.49512,0.18005 0.37809,0 0.63015,-0.19805 z"
         style="font-weight:600;-inkscape-font-specification:'Montserrat Semi-Bold'"
         id="path430" />
      <path
         d="m 274.40347,232.23136 h 1.12527 v 4.80717 h -1.12527 z m 0.56714,-0.79219 q -0.30608,0 -0.51313,-0.18905 -0.20705,-0.19805 -0.20705,-0.48612 0,-0.28807 0.20705,-0.47711 0.20705,-0.19805 0.51313,-0.19805 0.30607,0 0.51312,0.18904 0.20705,0.18005 0.20705,0.45912 0,0.29707 -0.20705,0.50412 -0.19805,0.19805 -0.51312,0.19805 z"
         style="font-weight:600;-inkscape-font-specification:'Montserrat Semi-Bold'"
         id="path432" />
      <path
         d="m 279.16563,237.10154 q -0.72918,0 -1.31432,-0.31507 -0.58514,-0.31508 -0.91823,-0.87322 -0.32407,-0.56713 -0.32407,-1.27831 0,-0.71117 0.32407,-1.2693 0.33309,-0.55814 0.91823,-0.87322 0.58514,-0.31507 1.31432,-0.31507 0.73818,0 1.32332,0.31507 0.58514,0.31508 0.90922,0.87322 0.33308,0.55813 0.33308,1.2693 0,0.71118 -0.33308,1.27831 -0.32408,0.55814 -0.90922,0.87322 -0.58514,0.31507 -1.32332,0.31507 z m 0,-0.96323 q 0.62115,0 1.02625,-0.4141 0.4051,-0.4141 0.4051,-1.08927 0,-0.67516 -0.4051,-1.08926 -0.4051,-0.4141 -1.02625,-0.4141 -0.62115,0 -1.02625,0.4141 -0.3961,0.4141 -0.3961,1.08926 0,0.67517 0.3961,1.08927 0.4051,0.4141 1.02625,0.4141 z"
         style="font-weight:600;-inkscape-font-specification:'Montserrat Semi-Bold'"
         id="path434" />
      <path
         d="m 285.53918,232.17735 q 0.90922,0 1.45836,0.53113 0.54913,0.53112 0.54913,1.57538 v 2.75467 h -1.12527 v -2.61064 q 0,-0.63015 -0.29708,-0.94523 -0.29707,-0.32408 -0.8462,-0.32408 -0.62115,0 -0.98124,0.3781 -0.36009,0.36909 -0.36009,1.07126 v 2.43059 h -1.12527 v -4.80717 h 1.07126 v 0.62115 q 0.27907,-0.33308 0.70217,-0.50412 0.4231,-0.17104 0.95423,-0.17104 z"
         style="font-weight:600;-inkscape-font-specification:'Montserrat Semi-Bold'"
         id="path436" />
    </g>
    <g
       aria-label="GNOME Shell Extension"
       id="text481"
       style="font-weight:bold;font-size:4.20629px;line-height:1.25;font-family:Montserrat;-inkscape-font-specification:'Montserrat Bold';fill:#f1f5ff;stroke-width:0.11968">
      <path
         d="m 231.55731,241.40959 h 0.29864 v 1.12308 q -0.2061,0.18087 -0.48793,0.27761 -0.28182,0.0967 -0.59308,0.0967 -0.44166,0 -0.79499,-0.19349 -0.35333,-0.19349 -0.55523,-0.5342 -0.2019,-0.34492 -0.2019,-0.76975 0,-0.42484 0.2019,-0.76555 0.2019,-0.34491 0.55523,-0.5384 0.35333,-0.19349 0.79919,-0.19349 0.33651,0 0.61833,0.10936 0.28182,0.10516 0.47531,0.31547 l -0.19349,0.1977 q -0.34912,-0.34492 -0.88753,-0.34492 -0.35753,0 -0.64777,0.15984 -0.28602,0.15564 -0.45007,0.43746 -0.16404,0.27761 -0.16404,0.62253 0,0.34491 0.16404,0.62253 0.16405,0.27761 0.45007,0.43745 0.28603,0.15984 0.64357,0.15984 0.45428,0 0.76975,-0.22714 z"
         style="font-weight:normal;-inkscape-font-specification:Montserrat"
         id="path371" />
      <path
         d="m 235.19575,239.93739 v 2.9444 h -0.25658 l -1.89283,-2.38917 v 2.38917 h -0.31127 v -2.9444 h 0.25659 l 1.89703,2.38917 v -2.38917 z"
         style="font-weight:normal;-inkscape-font-specification:Montserrat"
         id="path373" />
      <path
         d="m 237.44191,242.90703 q -0.43746,0 -0.79499,-0.19349 -0.35333,-0.1977 -0.55523,-0.53841 -0.1977,-0.34071 -0.1977,-0.76554 0,-0.42484 0.1977,-0.76555 0.2019,-0.34071 0.55523,-0.53419 0.35753,-0.1977 0.79499,-0.1977 0.43745,0 0.78658,0.19349 0.35332,0.19349 0.55523,0.5384 0.2019,0.34071 0.2019,0.76555 0,0.42483 -0.2019,0.76975 -0.20191,0.34071 -0.55523,0.5342 -0.34913,0.19349 -0.78658,0.19349 z m 0,-0.27762 q 0.34912,0 0.63094,-0.15563 0.28182,-0.15984 0.44166,-0.43745 0.15984,-0.28183 0.15984,-0.62674 0,-0.34492 -0.15984,-0.62253 -0.15984,-0.28182 -0.44166,-0.43746 -0.28182,-0.15984 -0.63094,-0.15984 -0.34912,0 -0.63515,0.15984 -0.28182,0.15564 -0.44587,0.43746 -0.15984,0.27761 -0.15984,0.62253 0,0.34491 0.15984,0.62674 0.16405,0.27761 0.44587,0.43745 0.28603,0.15563 0.63515,0.15563 z"
         style="font-weight:normal;-inkscape-font-specification:Montserrat"
         id="path375" />
      <path
         d="m 242.74184,239.93739 v 2.9444 h -0.29865 v -2.35552 l -1.15673,1.98116 h -0.14722 l -1.15673,-1.96854 v 2.3429 h -0.29865 v -2.9444 h 0.25659 l 1.27871,2.18306 1.26609,-2.18306 z"
         style="font-weight:normal;-inkscape-font-specification:Montserrat"
         id="path377" />
      <path
         d="m 245.78298,242.61259 v 0.2692 h -2.08211 v -2.9444 h 2.01902 v 0.2692 h -1.70775 v 1.04737 h 1.52267 v 0.26499 h -1.52267 v 1.09364 z"
         style="font-weight:normal;-inkscape-font-specification:Montserrat"
         id="path379" />
      <path
         d="m 248.42874,242.90703 q -0.32809,0 -0.63095,-0.10516 -0.29864,-0.10516 -0.46269,-0.27761 l 0.12199,-0.23976 q 0.15983,0.15984 0.42483,0.26079 0.265,0.0967 0.54682,0.0967 0.39539,0 0.59309,-0.14301 0.19769,-0.14722 0.19769,-0.37857 0,-0.17666 -0.10936,-0.28182 -0.10516,-0.10516 -0.26079,-0.15984 -0.15564,-0.0589 -0.43325,-0.12619 -0.3323,-0.0841 -0.52999,-0.15984 -0.1977,-0.0799 -0.34071,-0.23975 -0.13881,-0.15984 -0.13881,-0.43325 0,-0.22294 0.11778,-0.40381 0.11777,-0.18507 0.36174,-0.29444 0.24396,-0.10936 0.6057,-0.10936 0.25238,0 0.49214,0.0715 0.24396,0.0673 0.42063,0.18928 l -0.10516,0.24817 q -0.18508,-0.12198 -0.39539,-0.18087 -0.21032,-0.0631 -0.41222,-0.0631 -0.38698,0 -0.58467,0.15142 -0.19349,0.14722 -0.19349,0.38277 0,0.17667 0.10516,0.28603 0.10936,0.10516 0.2692,0.16405 0.16404,0.0547 0.43745,0.12198 0.32389,0.0799 0.52158,0.15984 0.2019,0.0757 0.34071,0.23555 0.13881,0.15563 0.13881,0.42484 0,0.22293 -0.12198,0.40801 -0.11778,0.18087 -0.36595,0.29023 -0.24817,0.10516 -0.60991,0.10516 z"
         style="font-weight:normal;-inkscape-font-specification:Montserrat"
         id="path381" />
      <path
         d="m 251.26798,240.65246 q 0.41643,0 0.66039,0.24396 0.24817,0.23976 0.24817,0.70245 v 1.28292 h -0.29864 v -1.25347 q 0,-0.34492 -0.17246,-0.52579 -0.17246,-0.18087 -0.49214,-0.18087 -0.35753,0 -0.56785,0.21452 -0.20611,0.21031 -0.20611,0.58467 v 1.16094 h -0.29864 v -3.12107 h 0.29864 v 1.29554 q 0.12199,-0.19349 0.33651,-0.29865 0.21452,-0.10515 0.49213,-0.10515 z"
         style="font-weight:normal;-inkscape-font-specification:Montserrat"
         id="path383" />
      <path
         d="m 254.92325,241.86807 h -1.85077 q 0.0252,0.34492 0.265,0.55944 0.23976,0.21032 0.60571,0.21032 0.20611,0 0.37856,-0.0715 0.17246,-0.0757 0.29865,-0.21873 l 0.16825,0.19349 q -0.14722,0.17666 -0.37015,0.2692 -0.21873,0.0925 -0.48373,0.0925 -0.34071,0 -0.6057,-0.14301 -0.26079,-0.14722 -0.40801,-0.40381 -0.14722,-0.25658 -0.14722,-0.58046 0,-0.32389 0.13881,-0.58047 0.14301,-0.25659 0.38697,-0.3996 0.24818,-0.14301 0.55523,-0.14301 0.30706,0 0.55103,0.14301 0.24396,0.14301 0.38277,0.3996 0.13881,0.25238 0.13881,0.58047 z m -1.0684,-0.95903 q -0.31967,0 -0.5384,0.20611 -0.21452,0.2019 -0.24397,0.52999 h 1.56895 q -0.0294,-0.32809 -0.24817,-0.52999 -0.21452,-0.20611 -0.53841,-0.20611 z"
         style="font-weight:normal;-inkscape-font-specification:Montserrat"
         id="path385" />
      <path
         d="m 255.53737,239.76072 h 0.29865 v 3.12107 h -0.29865 z"
         style="font-weight:normal;-inkscape-font-specification:Montserrat"
         id="path387" />
      <path
         d="m 256.66886,239.76072 h 0.29865 v 3.12107 h -0.29865 z"
         style="font-weight:normal;-inkscape-font-specification:Montserrat"
         id="path389" />
      <path
         d="m 261.0476,242.61259 v 0.2692 h -2.08211 v -2.9444 h 2.01902 v 0.2692 h -1.70776 v 1.04737 h 1.52268 v 0.26499 h -1.52268 v 1.09364 z"
         style="font-weight:normal;-inkscape-font-specification:Montserrat"
         id="path391" />
      <path
         d="m 263.06242,242.88179 -0.70245,-0.92538 -0.70666,0.92538 h -0.3365 l 0.87491,-1.1357 -0.83285,-1.07681 h 0.3365 l 0.6646,0.8665 0.66459,-0.8665 h 0.32809 l -0.83284,1.07681 0.88332,1.1357 z"
         style="font-weight:normal;-inkscape-font-specification:Montserrat"
         id="path393" />
      <path
         d="m 265.06461,242.74719 q -0.0841,0.0757 -0.21031,0.11778 -0.12198,0.0378 -0.25659,0.0378 -0.31126,0 -0.47951,-0.16825 -0.16825,-0.16825 -0.16825,-0.47531 v -1.3376 h -0.3954 v -0.25238 h 0.3954 v -0.48372 h 0.29864 v 0.48372 h 0.67301 v 0.25238 h -0.67301 v 1.32077 q 0,0.1977 0.0968,0.30286 0.10095,0.10095 0.28602,0.10095 0.0925,0 0.17667,-0.0294 0.0883,-0.0294 0.15143,-0.0841 z"
         style="font-weight:normal;-inkscape-font-specification:Montserrat"
         id="path395" />
      <path
         d="m 267.45379,241.86807 h -1.85077 q 0.0252,0.34492 0.265,0.55944 0.23976,0.21032 0.6057,0.21032 0.20611,0 0.37857,-0.0715 0.17246,-0.0757 0.29865,-0.21873 l 0.16825,0.19349 q -0.14722,0.17666 -0.37016,0.2692 -0.21872,0.0925 -0.48372,0.0925 -0.34071,0 -0.6057,-0.14301 -0.26079,-0.14722 -0.40801,-0.40381 -0.14723,-0.25658 -0.14723,-0.58046 0,-0.32389 0.13881,-0.58047 0.14302,-0.25659 0.38698,-0.3996 0.24817,-0.14301 0.55523,-0.14301 0.30706,0 0.55103,0.14301 0.24396,0.14301 0.38277,0.3996 0.13881,0.25238 0.13881,0.58047 z m -1.0684,-0.95903 q -0.31968,0 -0.5384,0.20611 -0.21452,0.2019 -0.24397,0.52999 h 1.56895 q -0.0294,-0.32809 -0.24817,-0.52999 -0.21452,-0.20611 -0.53841,-0.20611 z"
         style="font-weight:normal;-inkscape-font-specification:Montserrat"
         id="path397" />
      <path
         d="m 269.19519,240.65246 q 0.41643,0 0.66039,0.24396 0.24817,0.23976 0.24817,0.70245 v 1.28292 h -0.29864 v -1.25347 q 0,-0.34492 -0.17246,-0.52579 -0.17246,-0.18087 -0.49214,-0.18087 -0.35753,0 -0.56785,0.21452 -0.20611,0.21031 -0.20611,0.58467 v 1.16094 h -0.29864 v -2.21251 h 0.28603 v 0.40801 q 0.12198,-0.2019 0.3365,-0.31126 0.21873,-0.11357 0.50475,-0.11357 z"
         style="font-weight:normal;-inkscape-font-specification:Montserrat"
         id="path399" />
      <path
         d="m 271.50866,242.90282 q -0.26921,0 -0.51738,-0.0757 -0.24396,-0.0799 -0.38277,-0.1977 l 0.1346,-0.23555 q 0.13881,0.10936 0.34912,0.18087 0.21032,0.0673 0.43746,0.0673 0.30285,0 0.44586,-0.0925 0.14722,-0.0967 0.14722,-0.2692 0,-0.12198 -0.0799,-0.18928 -0.0799,-0.0715 -0.2019,-0.10516 -0.12198,-0.0379 -0.32388,-0.0715 -0.2692,-0.0505 -0.43325,-0.10095 -0.16405,-0.0547 -0.28182,-0.18087 -0.11357,-0.12619 -0.11357,-0.34912 0,-0.27762 0.23134,-0.45428 0.23135,-0.17666 0.64357,-0.17666 0.21452,0 0.42904,0.0589 0.21452,0.0547 0.35333,0.14722 l -0.1304,0.23976 q -0.27341,-0.18928 -0.65197,-0.18928 -0.28603,0 -0.43325,0.10095 -0.14301,0.10095 -0.14301,0.265 0,0.12619 0.0799,0.2019 0.0841,0.0757 0.20611,0.11357 0.12199,0.0336 0.33651,0.0715 0.26499,0.0505 0.42483,0.10095 0.15984,0.0505 0.27341,0.17245 0.11357,0.12199 0.11357,0.33651 0,0.29023 -0.24396,0.46269 -0.23976,0.16825 -0.6688,0.16825 z"
         style="font-weight:normal;-inkscape-font-specification:Montserrat"
         id="path401" />
      <path
         d="m 272.97245,240.66928 h 0.29864 v 2.21251 h -0.29864 z m 0.15142,-0.48372 q -0.0925,0 -0.15563,-0.0631 -0.0631,-0.0631 -0.0631,-0.15142 0,-0.0841 0.0631,-0.14722 0.0631,-0.0631 0.15563,-0.0631 0.0925,0 0.15563,0.0631 0.0631,0.0589 0.0631,0.14301 0,0.0925 -0.0631,0.15563 -0.0631,0.0631 -0.15563,0.0631 z"
         style="font-weight:normal;-inkscape-font-specification:Montserrat"
         id="path403" />
      <path
         d="m 275.00829,242.90282 q -0.31968,0 -0.57627,-0.14301 -0.25658,-0.14722 -0.4038,-0.40381 -0.14722,-0.25658 -0.14722,-0.58046 0,-0.32389 0.14722,-0.58047 0.14722,-0.25659 0.4038,-0.3996 0.25659,-0.14301 0.57627,-0.14301 0.31967,0 0.57626,0.14301 0.25658,0.14301 0.3996,0.3996 0.14722,0.25658 0.14722,0.58047 0,0.32388 -0.14722,0.58046 -0.14302,0.25659 -0.3996,0.40381 -0.25659,0.14301 -0.57626,0.14301 z m 0,-0.26499 q 0.23555,0 0.42063,-0.10516 0.18928,-0.10937 0.29444,-0.30706 0.10515,-0.1977 0.10515,-0.45007 0,-0.25238 -0.10515,-0.45008 -0.10516,-0.19769 -0.29444,-0.30285 -0.18508,-0.10936 -0.42063,-0.10936 -0.23556,0 -0.42484,0.10936 -0.18508,0.10516 -0.29444,0.30285 -0.10516,0.1977 -0.10516,0.45008 0,0.25237 0.10516,0.45007 0.10936,0.19769 0.29444,0.30706 0.18928,0.10516 0.42484,0.10516 z"
         style="font-weight:normal;-inkscape-font-specification:Montserrat"
         id="path405" />
      <path
         d="m 277.86856,240.65246 q 0.41643,0 0.66039,0.24396 0.24817,0.23976 0.24817,0.70245 v 1.28292 h -0.29864 v -1.25347 q 0,-0.34492 -0.17246,-0.52579 -0.17246,-0.18087 -0.49214,-0.18087 -0.35753,0 -0.56785,0.21452 -0.2061,0.21031 -0.2061,0.58467 v 1.16094 h -0.29865 v -2.21251 h 0.28603 v 0.40801 q 0.12198,-0.2019 0.3365,-0.31126 0.21873,-0.11357 0.50475,-0.11357 z"
         style="font-weight:normal;-inkscape-font-specification:Montserrat"
         id="path407" />
    </g>
    <g
       transform="matrix(0.32428435,0,0,0.32428435,248.02092,256.87281)"
       id="g854">
      <path
         id="rect1755-3"
         style="opacity:1;fill:url(#linearGradient921-3);fill-opacity:1;fill-rule:nonzero;stroke:none;stroke-width:0.123516;stroke-miterlimit:4;stroke-dasharray:none;stroke-dashoffset:0;stroke-opacity:0.179775"
         d="m 28.204541,4.0003708 c 4.876292,2.8153309 6.244307,10.1146722 3.428976,14.9909642 -2.815331,4.876302 -9.007508,6.535485 -13.8838,3.720154 -4.876292,-2.815331 -6.535484,-9.007508 -3.720154,-13.8838002 2.815331,-4.8762918 9.298686,-7.642649 14.174978,-4.827318 z"
         sodipodi:nodetypes="sssss"
         inkscape:connector-curvature="0" />
      <rect
         style="opacity:1;fill:url(#linearGradient919-5);fill-opacity:1;fill-rule:nonzero;stroke:none;stroke-width:0.123516;stroke-miterlimit:4;stroke-dasharray:none;stroke-dashoffset:0;stroke-opacity:0.179775"
         id="rect861-6"
         width="20.327295"
         height="20.327295"
         x="17.852468"
         y="-11.347621"
         ry="10.163648"
         rx="10.163648"
         transform="rotate(30.00001)" />
      <rect
         transform="rotate(30.00003)"
         style="opacity:1;fill:#ffffff;fill-opacity:1;fill-rule:nonzero;stroke:none;stroke-width:0.386087;stroke-miterlimit:4;stroke-dasharray:none;stroke-dashoffset:0;stroke-opacity:0.179775"
         id="rect903-7"
         width="0.79423714"
         height="3.1107616"
         x="24.080885"
         y="-4.7985969" />
      <rect
         transform="rotate(30.00003)"
         style="opacity:1;fill:#ffffff;fill-opacity:1;fill-rule:nonzero;stroke:none;stroke-width:0.441244;stroke-miterlimit:4;stroke-dasharray:none;stroke-dashoffset:0;stroke-opacity:0.179775"
         id="rect905-5"
         width="0.79423714"
         height="0.79423714"
         x="24.080885"
         y="-1.260676" />
      <rect
         y="-30.650036"
         x="-3.823873"
         height="4.5832267"
         width="0.79423714"
         id="rect907-3"
         style="opacity:1;fill:#ffffff;fill-opacity:1;fill-rule:nonzero;stroke:none;stroke-width:0.468638;stroke-miterlimit:4;stroke-dasharray:none;stroke-dashoffset:0;stroke-opacity:0.179775"
         transform="rotate(120.00003)" />
      <rect
         y="-30.650036"
         x="-2.2353988"
         height="4.5832267"
         width="0.79423714"
         id="rect911-5"
         style="opacity:1;fill:#ffffff;fill-opacity:1;fill-rule:nonzero;stroke:none;stroke-width:0.468638;stroke-miterlimit:4;stroke-dasharray:none;stroke-dashoffset:0;stroke-opacity:0.179775"
         transform="rotate(120.00003)" />
      <path
         inkscape:connector-curvature="0"
         sodipodi:nodetypes="sccscccccs"
         d="M 33.582563,8.4295221 C 32.194768,8.2181765 32.546945,21.436498 24.687575,18.125291 L 22.421199,17.735206 C 17.985845,15.674132 14.48249,13.505943 9.5059911,13.808839 3.9368007,14.147808 -0.09798137,16.568078 1.5943774,22.414816 4.7965721,31.598207 14.837053,36.446948 24.020465,33.244804 33.202895,30.042369 37.624889,19.91641 34.850375,10.818511 L 34.62121,10.094404 C 34.325856,9.8303703 34.108737,8.5454776 33.582558,8.4295216 Z"
         style="fill:url(#linearGradient909-6);fill-opacity:1;stroke-width:0.34486"
         id="path2740-6-9" />
      <path
         inkscape:connector-curvature="0"
         sodipodi:nodetypes="ssccss"
         d="M 34.630316,9.9932671 C 31.635566,1.408257 34.087005,20.60071 25.129236,16.826739 14.089275,12.175525 0.54411127,12.251207 3.5380839,20.837256 6.5319965,29.423324 15.91941,33.956686 24.505497,30.962824 33.091644,27.968881 37.624996,18.581347 34.630996,9.9952179 Z"
         style="fill:url(#linearGradient897-1);fill-opacity:1;stroke-width:0.32243"
         id="path2747-2-3" />
      <circle
         transform="rotate(70.776437)"
         r="1.9669757"
         cy="-2.0889854"
         cx="20.499191"
         id="path2745-9-6"
         style="fill:url(#linearGradient917-2);fill-opacity:1;stroke-width:0.111934" />
      <circle
         transform="rotate(70.776437)"
         r="1.1652108"
         cy="-1.6731781"
         cx="20.200115"
         id="circle2815-1-0"
         style="fill:#ffffff;stroke-width:0.0663083" />
      <circle
         transform="rotate(70.776437)"
         r="0.79693586"
         cy="-1.5825844"
         cx="20.186899"
         id="circle2817-2-6"
         style="fill:#000000;stroke-width:0.045351" />
      <path
         inkscape:connector-curvature="0"
         d="m 8.2002996,23.637585 c -0.6644094,-0.06469 -1.5117483,0.07097 -2.1468708,0.204303 -1.3563166,0.284739 -3.7835665,-0.204583 -4.123929,-0.542372 0.4179997,1.021591 0.9227868,1.984498 1.5028466,2.882953 3.635e-4,1.81e-4 9.087e-4,4.51e-4 0.00127,6.69e-4 1.8711479,0.786028 5.9456066,0.258831 5.8265622,-1.767213 C 9.230323,23.907774 8.7864921,23.694728 8.2002465,23.637658 Z"
         style="color:#000000;font-style:normal;font-variant:normal;font-weight:normal;font-stretch:normal;font-size:medium;line-height:normal;font-family:sans-serif;font-variant-ligatures:normal;font-variant-position:normal;font-variant-caps:normal;font-variant-numeric:normal;font-variant-alternates:normal;font-feature-settings:normal;text-indent:0;text-align:start;text-decoration:none;text-decoration-line:none;text-decoration-style:solid;text-decoration-color:#000000;letter-spacing:normal;word-spacing:normal;text-transform:none;writing-mode:lr-tb;direction:ltr;text-orientation:mixed;dominant-baseline:auto;baseline-shift:baseline;text-anchor:start;white-space:normal;shape-padding:0;clip-rule:nonzero;display:inline;overflow:visible;visibility:visible;opacity:1;isolation:auto;mix-blend-mode:normal;color-interpolation:sRGB;color-interpolation-filters:linearRGB;solid-color:#000000;solid-opacity:1;vector-effect:none;fill:#000000;fill-opacity:0.285336;fill-rule:nonzero;stroke:none;stroke-width:0.498498;stroke-linecap:butt;stroke-linejoin:miter;stroke-miterlimit:4;stroke-dasharray:none;stroke-dashoffset:0;stroke-opacity:1;color-rendering:auto;image-rendering:auto;shape-rendering:auto;text-rendering:auto;enable-background:accumulate"
         id="path2834-7-2" />
    </g>
  </g>
  <path
     d="m -370.46178,171.64423 c 9.20468,-15.67644 124.59309,23.7413 170.08337,-10.26768 44.20277,-33.04638 25.34666,-110.021154 56.33066,-155.6932284 40.89001,-60.2740906 130.352104,-106.1819916 175.312243,-41.4393206 66.17727,107.159514 17.26223,257.368639 -74.20426,313.854439 -91.467023,56.48614 -240.355663,52.14924 -313.855823,-74.20666 -5.87017,-10.09149 -16.50972,-25.2238 -13.66614,-32.24761 z"
     style="display:inline;fill:none;fill-opacity:1;stroke:#ffffff;stroke-width:0.52916666;stroke-dasharray:none"
     id="path2174"
     sodipodi:nodetypes="cascascc" />
  <path
     d="m -324.34427,260.85914 c -61.85526,-100.18919 111.0693,81.13209 146.2573,-39.72689 C -134.71974,72.180033 -41.439777,-29.193734 38.489144,36.821636 118.04072,102.52533 64.166052,285.63785 -23.474124,340.08622 -111.5609,394.81202 -250.8398,375.98501 -324.33023,260.88189 c -0.004,-0.006 -0.0161,-0.0128 -0.0155,-0.0216 9e-5,-4e-4 9.3e-4,-5.3e-4 9.3e-4,-5.3e-4 z"
     style="display:inline;fill:none;fill-opacity:1;stroke:#ffffff;stroke-width:0.52916666;stroke-dasharray:none"
     id="path2176"
     sodipodi:nodetypes="sssasass" />
  <path
     d="m 379.48531,152.8042 c 9.20468,-15.67644 124.59309,23.7413 170.08337,-10.26768 44.20277,-33.04638 25.34666,-110.021152 56.33066,-155.693226 40.89001,-60.274091 130.3521,-106.181994 175.31224,-41.439321 66.17727,107.159514 17.26223,257.368637 -74.20426,313.854437 -91.46702,56.48614 -240.35566,52.14924 -313.85582,-74.20666 -5.87017,-10.09149 -16.50972,-25.2238 -13.66614,-32.24761 z"
     style="display:inline;fill:none;fill-opacity:1;stroke:#ffffff;stroke-width:0.52916666;stroke-dasharray:none"
     id="path984"
     sodipodi:nodetypes="cascascc" />
  <g
     inkscape:groupmode="layer"
     id="layer5"
     inkscape:label="Toggle Button">
    <g
       id="g2582"
       transform="rotate(-8.4909497,423.15932,323.45475)">
      <circle
         style="fill:none;stroke:#ffffff;stroke-width:0.529167;stroke-dasharray:none;stop-color:#000000"
         id="path1089"
         cx="121.40549"
         cy="223.38007"
         r="25.730021" />
      <rect
         style="fill:none;stroke:#ffffff;stroke-width:0.529167;stroke-dasharray:none;stop-color:#000000"
         id="rect1197"
         width="117.00791"
         height="51.503757"
         x="30.149458"
         y="197.62819"
         ry="25.751879" />
    </g>
    <g
       id="g2578"
       transform="rotate(-15,442.10266,205.76338)">
      <circle
         style="fill:none;stroke:#ffffff;stroke-width:0.529167;stroke-dasharray:none;stop-color:#000000"
         id="circle1205"
         cx="-417.97107"
         cy="205.76338"
         r="18.957783"
         transform="scale(-1,1)" />
      <rect
         style="fill:none;stroke:#ffffff;stroke-width:0.529167;stroke-dasharray:none;stop-color:#000000"
         id="rect1207"
         width="86.210991"
         height="37.947773"
         x="-485.20816"
         y="186.78949"
         ry="18.973886"
         transform="scale(-1,1)" />
    </g>
    <g
       id="g2586"
       transform="rotate(3.6234891,584.37411,310.28739)">
      <circle
         style="fill:none;stroke:#ffffff;stroke-width:0.529167;stroke-dasharray:none;stop-color:#000000"
         id="circle1211"
         cx="-29.559757"
         cy="134.82796"
         r="18.513325"
         transform="scale(-1,1)" />
      <rect
         style="fill:none;stroke:#ffffff;stroke-width:0.529167;stroke-dasharray:none;stop-color:#000000"
         id="rect1213"
         width="84.189804"
         height="37.058105"
         x="-95.220505"
         y="116.2989"
         ry="18.529053"
         transform="scale(-1,1)" />
    </g>
    <g
       id="g2574"
       transform="rotate(15,454.40845,68.113211)">
      <circle
         style="fill:none;stroke:#ffffff;stroke-width:0.529167;stroke-dasharray:none;stop-color:#000000"
         id="circle1438"
         cx="467.69519"
         cy="68.113213"
         r="10.438065" />
      <rect
         style="fill:none;stroke:#ffffff;stroke-width:0.529167;stroke-dasharray:none;stop-color:#000000"
         id="rect1440"
         width="47.467361"
         height="20.893864"
         x="430.67477"
         y="57.666279"
         ry="10.446932" />
    </g>
    <g
       id="g2592"
       transform="matrix(-0.43029548,-0.08657923,-0.08657923,0.43029548,263.0772,-22.117322)">
      <circle
         style="fill:none;stroke:#ffffff;stroke-width:1.20561;stroke-dasharray:none;stop-color:#000000"
         id="circle2588"
         cx="-29.559757"
         cy="134.82796"
         r="18.513325"
         transform="scale(-1,1)" />
      <rect
         style="fill:none;stroke:#ffffff;stroke-width:1.20561;stroke-dasharray:none;stop-color:#000000"
         id="rect2590"
         width="84.189804"
         height="37.058105"
         x="-95.220505"
         y="116.2989"
         ry="18.529053"
         transform="scale(-1,1)" />
    </g>
  </g>
  <metadata
     id="metadata820">
    <rdf:RDF>
      <cc:Work
         rdf:about="">
        <cc:license
           rdf:resource="https://www.gnu.org/licenses/gpl-3.0.html" />
        <dc:title>Just Perfection Extension Intro</dc:title>
        <dc:date>2022</dc:date>
        <dc:creator>
          <cc:Agent>
            <dc:title>Javad Rahmatzadeh</dc:title>
          </cc:Agent>
        </dc:creator>
      </cc:Work>
    </rdf:RDF>
  </metadata>
</svg>
